<?xml version="1.0" standalone="no"?>
<!DOCTYPE svg PUBLIC "-//W3C//DTD SVG 20010904//EN"
 "http://www.w3.org/TR/2001/REC-SVG-20010904/DTD/svg10.dtd">
<svg version="1.0" xmlns="http://www.w3.org/2000/svg"
 width="900.000000pt" height="351.000000pt" viewBox="0 0 900.000000 351.000000"
 preserveAspectRatio="xMidYMid meet">
<metadata>
Created by potrace 1.10, written by Peter Selinger 2001-2011
</metadata>
<g transform="translate(0.000000,351.000000) scale(0.100000,-0.100000)"
fill="#000000" stroke="none">
<path d="M5419 3230 c-167 -24 -284 -122 -309 -261 -17 -87 -17 -653 -1 -734
23 -115 102 -197 237 -247 52 -19 79 -21 239 -22 160 0 187 3 237 22 124 45
217 133 235 221 5 20 8 200 8 401 0 394 -1 404 -54 477 -34 47 -117 104 -186
127 -60 20 -306 30 -406 16z m218 -210 c10 -19 13 -116 11 -426 -3 -379 -4
-403 -22 -423 -19 -21 -51 -27 -73 -13 -29 18 -33 70 -33 442 0 440 2 454 75
448 20 -2 34 -11 42 -28z"/>
<path d="M3955 3213 c-55 -3 -92 -8 -97 -16 -4 -7 -8 -276 -8 -598 0 -457 3
-589 13 -596 6 -6 78 -13 158 -17 128 -6 149 -5 163 9 14 14 16 47 16 247 0
179 3 229 13 226 15 -6 28 -32 63 -123 95 -255 134 -348 148 -357 6 -4 83 -8
172 -8 141 0 163 2 177 18 14 15 16 82 15 596 0 319 -4 590 -9 603 l-9 23
-167 -2 -168 -3 -5 -248 c-3 -156 -9 -247 -15 -246 -5 1 -55 107 -110 238 -55
130 -104 242 -108 249 -8 12 -30 12 -242 5z"/>
<path d="M287 3203 c-4 -3 -7 -653 -7 -1443 0 -1192 2 -1439 13 -1449 10 -8
404 -10 1451 -8 1264 2 1438 4 1446 17 15 24 13 2863 -2 2878 -9 9 -346 12
-1453 12 -793 0 -1445 -3 -1448 -7z m861 -942 c1 -448 5 -638 13 -648 9 -10
88 -13 406 -13 253 0 401 -4 414 -10 18 -10 19 -25 19 -364 0 -286 -3 -356
-14 -365 -9 -8 -202 -10 -702 -9 l-689 3 -3 1010 c-1 556 0 1016 3 1023 3 10
64 12 277 10 l273 -3 3 -634z m1726 383 c14 -14 16 -120 16 -1014 0 -894 -2
-1000 -16 -1014 -13 -14 -52 -16 -273 -16 -208 0 -261 3 -270 14 -8 10 -11
179 -11 629 0 382 -3 625 -10 641 l-10 26 -395 0 c-254 0 -403 4 -416 10 -18
10 -19 25 -19 365 0 327 1 355 18 364 11 7 253 10 694 11 602 0 678 -2 692
-16z"/>
<path d="M4110 1550 c-158 -29 -263 -106 -284 -210 -15 -72 -18 -157 -6 -210
30 -141 88 -191 375 -321 143 -65 175 -105 175 -220 0 -82 -25 -119 -79 -119
-70 0 -80 33 -81 261 0 15 -55 18 -212 12 l-168 -6 0 -107 c0 -76 4 -116 15
-136 8 -16 15 -36 15 -45 0 -27 77 -88 159 -128 l76 -36 200 0 c168 0 209 3
255 19 101 34 159 76 193 141 20 36 22 55 21 180 0 129 -2 145 -26 196 -18 40
-41 69 -75 96 -55 43 -179 110 -258 139 -85 31 -169 79 -182 105 -7 13 -13 55
-13 92 0 59 3 71 25 92 29 30 58 32 85 5 15 -15 20 -33 20 -77 0 -111 -15
-103 196 -103 217 0 209 -5 198 116 -9 98 -35 150 -97 191 -83 56 -162 74
-332 78 -82 2 -170 0 -195 -5z"/>
<path d="M5405 1550 c-115 -24 -174 -51 -236 -107 -92 -83 -102 -141 -97 -569
4 -361 6 -376 67 -452 72 -91 171 -130 350 -139 251 -11 382 25 477 130 68 76
75 109 81 417 6 302 -5 458 -36 523 -41 84 -125 149 -238 183 -65 19 -301 28
-368 14z m195 -202 c19 -21 20 -33 20 -422 0 -454 0 -451 -65 -451 -37 0 -41
3 -52 35 -15 45 -18 748 -3 802 17 59 63 76 100 36z"/>
<path d="M6670 1550 c-123 -22 -230 -83 -283 -163 -37 -55 -38 -60 -47 -184
-20 -269 -8 -615 25 -713 37 -111 147 -183 307 -202 136 -15 351 -4 420 22 63
25 139 79 181 132 37 47 56 133 57 261 l0 97 -207 -2 -208 -3 -5 -141 c-6
-164 -15 -184 -80 -184 -67 0 -65 -12 -65 445 0 392 1 414 19 434 24 26 66 27
97 2 23 -18 24 -25 27 -172 2 -87 8 -159 14 -166 8 -10 58 -13 193 -13 101 0
190 3 199 6 13 5 16 26 16 123 0 133 -15 208 -52 267 -46 72 -161 133 -290
154 -72 11 -251 11 -318 0z"/>
<path d="M7649 1526 c-5 -6 -9 -248 -9 -618 0 -480 3 -608 13 -608 6 -1 97 0
202 0 136 1 191 4 197 13 4 7 8 112 8 235 0 216 7 262 29 190 5 -18 19 -58 31
-88 11 -30 30 -80 40 -110 11 -30 35 -95 54 -145 l33 -90 186 -2 c232 -2 229
-3 192 93 -14 38 -33 87 -42 109 -8 22 -21 52 -29 67 -8 14 -14 34 -14 43 0 9
-6 29 -14 43 -8 15 -29 65 -47 112 -17 47 -35 93 -40 103 -5 9 -16 37 -24 61
-16 47 -14 54 76 256 34 77 49 109 63 143 26 63 49 112 62 139 8 14 14 30 14
36 0 23 -345 32 -367 9 -6 -7 -30 -57 -53 -111 -23 -54 -46 -106 -50 -115 -20
-37 -63 -138 -70 -160 -3 -14 -11 -26 -18 -29 -9 -3 -12 46 -12 200 0 112 -4
208 -8 215 -9 15 -388 23 -403 9z"/>
</g>
</svg>
